<?xml version="1.0" standalone="no"?>
<!DOCTYPE svg PUBLIC "-//W3C//DTD SVG 20010904//EN"
 "http://www.w3.org/TR/2001/REC-SVG-20010904/DTD/svg10.dtd">
<svg version="1.0" xmlns="http://www.w3.org/2000/svg"
 width="512.000000pt" height="512.000000pt" viewBox="0 0 512.000000 512.000000"
 preserveAspectRatio="xMidYMid meet">

<g transform="translate(0.000000,512.000000) scale(0.100000,-0.100000)"
fill="#000000" stroke="none">
<path d="M1420 2564 l0 -345 43 3 42 3 3 343 2 342 -45 0 -45 0 0 -346z"/>
<path d="M2000 2564 l0 -345 43 3 42 3 5 172 c5 164 6 173 29 197 35 37 85 51
131 37 63 -19 64 -25 70 -225 l5 -181 43 -3 42 -3 0 173 c0 95 -4 189 -10 207
-31 111 -180 152 -282 79 l-28 -19 0 125 0 126 -45 0 -45 0 0 -346z"/>
<path d="M960 2864 c-6 -14 -58 -144 -116 -288 -59 -143 -115 -283 -125 -309
l-19 -48 47 3 47 3 32 80 32 80 98 5 c55 3 105 9 112 13 6 5 12 19 12 33 0 32
-32 44 -117 44 -48 0 -64 3 -60 13 57 144 109 273 111 275 2 1 52 -122 112
-273 l109 -275 44 0 c40 0 43 2 37 23 -3 12 -61 162 -130 332 l-124 310 -46 3
c-42 3 -47 1 -56 -24z"/>
<path d="M1728 2839 c-37 -19 -38 -20 -38 -79 l0 -60 -45 0 c-45 0 -45 0 -45
-35 l0 -35 150 0 150 0 0 35 0 35 -60 0 -60 0 0 80 c0 44 -3 80 -7 80 -5 -1
-25 -10 -45 -21z"/>
<path d="M2689 2704 c-28 -8 -62 -30 -87 -54 -101 -101 -96 -293 11 -387 93
-82 264 -65 331 33 38 56 35 74 -12 74 -31 0 -41 -5 -52 -26 -42 -78 -192 -71
-246 11 -9 14 -19 54 -21 89 -5 53 -2 72 17 110 45 94 161 115 227 42 19 -20
33 -46 33 -61 0 -24 0 -24 -107 -27 l-108 -3 0 -30 0 -30 154 -3 154 -3 -5 64
c-3 34 -12 76 -21 93 -26 50 -78 94 -131 109 -60 18 -77 18 -137 -1z"/>
<path d="M3216 2709 c-51 -12 -99 -49 -120 -92 -26 -55 -22 -67 23 -67 33 0
40 4 45 25 15 61 130 86 183 41 25 -21 28 -32 31 -98 7 -127 -30 -206 -108
-229 -70 -21 -118 15 -108 81 4 32 45 59 109 73 51 12 54 14 54 42 0 30 -1 30
-55 30 -114 -1 -194 -69 -194 -167 0 -57 24 -94 75 -120 67 -35 174 -12 213
44 16 22 16 22 16 -15 0 -37 0 -37 40 -37 l40 0 0 180 c0 200 -6 228 -59 273
-51 43 -108 54 -185 36z"/>
<path d="M3720 2465 l0 -245 140 0 140 0 0 40 0 40 -95 0 -95 0 0 205 0 205
-45 0 -45 0 0 -245z"/>
<path d="M4100 2638 l-61 -73 28 -23 28 -22 20 23 c11 12 37 43 57 67 l38 45
0 -177 0 -178 -65 0 -65 0 0 -40 0 -40 165 0 165 0 0 40 0 40 -55 0 -55 0 0
205 0 205 -70 0 -69 0 -61 -72z"/>
<path d="M1700 2551 c-13 -26 -13 -185 1 -235 6 -21 21 -49 34 -62 29 -29 95
-47 140 -38 32 6 35 9 35 43 l0 36 -44 -3 c-35 -3 -49 1 -65 17 -19 19 -21 33
-21 122 0 111 -9 139 -45 139 -14 0 -29 -8 -35 -19z"/>
</g>
</svg>
